<svg width="14" height="9" viewBox="0 0 14 9" fill="none" xmlns="http://www.w3.org/2000/svg">
<path d="M13 2.43848H1C0.734784 2.43848 0.48043 2.33312 0.292893 2.14558C0.105357 1.95805 0 1.70369 0 1.43848C0 1.17326 0.105357 0.918906 0.292893 0.73137C0.48043 0.543834 0.734784 0.438477 1 0.438477H13C13.2652 0.438477 13.5196 0.543834 13.7071 0.73137C13.8946 0.918906 14 1.17326 14 1.43848C14 1.70369 13.8946 1.95805 13.7071 2.14558C13.5196 2.33312 13.2652 2.43848 13 2.43848ZM13 8.43848H1C0.734784 8.43848 0.48043 8.33312 0.292893 8.14558C0.105357 7.95805 0 7.70369 0 7.43848C0 7.17326 0.105357 6.91891 0.292893 6.73137C0.48043 6.54383 0.734784 6.43848 1 6.43848H13C13.2652 6.43848 13.5196 6.54383 13.7071 6.73137C13.8946 6.91891 14 7.17326 14 7.43848C14 7.70369 13.8946 7.95805 13.7071 8.14558C13.5196 8.33312 13.2652 8.43848 13 8.43848Z" fill="#2D2D2D"/>
</svg>
